<?xml version="1.0" encoding="UTF-8"?>
<svg width="136px" height="136px" viewBox="0 0 136 136" version="1.1" xmlns="http://www.w3.org/2000/svg" xmlns:xlink="http://www.w3.org/1999/xlink">
    <!-- Generator: Sketch 52.4 (67378) - http://www.bohemiancoding.com/sketch -->
    <title>h5/Graphics / Custom Icons / Customer / Logo / img_ic_white_136</title>
    <desc>Created with Sketch.</desc>
    <defs>
        <polygon id="path-1" points="0.694139535 0.623714286 130.997221 0.623714286 130.997221 68.2061776 0.694139535 68.2061776"></polygon>
    </defs>
    <g id="Graphics-/-Custom-Icons-/-Customer-/-Logo-/-img_ic_white_136" stroke="none" stroke-width="1" fill="none" fill-rule="evenodd">
        <g id="Group-19" transform="translate(2.000000, 2.000000)">
            <g id="Group-18" transform="translate(0.976744, 0.131388)">
                <g id="Group-15">
                    <mask id="mask-2" fill="white">
                        <use xlink:href="#path-1"></use>
                    </mask>
                    <g id="Clip-14"></g>
                    <path d="M26.6215814,55.8874429 C36.6958256,47.9649122 52.9496047,33.4443 52.9496047,33.4443 C52.9496047,33.4443 58.2289651,28.4017286 65.871,28.4017286 C73.5470465,28.4017286 78.7923953,33.4443 78.7923953,33.4443 C78.7923953,33.4443 95.5782674,48.629402 105.020651,55.8874429 C111.823733,61.1172796 122.171581,65.3103612 130.942047,68.2061776 C130.966233,67.4850551 130.997221,66.5947898 130.997221,65.8683816 C130.997221,29.8349122 102.067686,0.623034694 66.001,0.623034694 C29.9328023,0.623034694 0.694139535,29.8349122 0.694139535,65.8683816 C0.694139535,66.6521776 0.725883721,67.4284224 0.753093023,68.2061776 C8.99297674,65.5165041 19.7361163,61.3022796 26.6215814,55.8874429" id="Fill-13" fill="#FFFFFF" mask="url(#mask-2)"></path>
                </g>
                <path d="M103.20239,74.329149 C99.7180872,70.8186796 93.6761105,64.1511286 87.1587267,57.087149 C75.8487267,44.8273122 55.7969826,44.7389653 44.5822151,57.087149 C38.2197733,64.0922306 31.9964012,70.8451082 28.5385523,74.329149 C22.5509942,80.3624143 12.8244244,85.939598 5.08564535,89.610149 C14.5340756,114.018067 38.2356453,131.112067 66.0004709,131.112067 C93.6798895,131.112067 117.320994,113.899516 126.826866,89.610149 C119.013262,85.9343122 109.31239,80.4854959 103.20239,74.329149" id="Fill-16" fill="#FFFFFF"></path>
            </g>
        </g>
    </g>
</svg>